<svg xmlns="http://www.w3.org/2000/svg" viewBox="0 0 100 100">
  <!-- fundo transparente -->
  <!-- barra 1 -->
  <rect x="10" y="13" width="76" height="20" rx="7" fill="white" opacity="1"    stroke="#CBD5E1" stroke-width="1.5"/>
  <rect x="20" y="20" width="30" height="3"  rx="1.5" fill="#888" opacity="0.25"/>
  <rect x="54" y="20" width="18" height="3"  rx="1.5" fill="#888" opacity="0.18"/>
  <!-- barra 2 -->
  <rect x="10" y="40" width="76" height="20" rx="7" fill="white" opacity="0.65" stroke="#CBD5E1" stroke-width="1.5"/>
  <rect x="20" y="47" width="36" height="3"  rx="1.5" fill="#888" opacity="0.2"/>
  <rect x="60" y="47" width="14" height="3"  rx="1.5" fill="#888" opacity="0.15"/>
  <!-- barra 3 -->
  <rect x="10" y="67" width="76" height="20" rx="7" fill="white" opacity="0.32" stroke="#CBD5E1" stroke-width="1.5"/>
  <rect x="20" y="74" width="24" height="3"  rx="1.5" fill="#888" opacity="0.15"/>
  <!-- sparkle Ultrasoft — 4 pontas iguais, dourado -->
  <g transform="translate(72, 73)">
    <path d="M0,-22 C2,-8 8,-2 22,0 C8,2 2,8 0,22 C-2,8 -8,2 -22,0 C-8,-2 -2,-8 0,-22Z" fill="#C89B3C"/>
  </g>
</svg>
