<svg xmlns="http://www.w3.org/2000/svg" viewBox="0 0 100 100">
  <defs>
    <linearGradient id="bg" x1="0" y1="0" x2="0" y2="1">
      <stop offset="0%" stop-color="#2A5F8A"/>
      <stop offset="100%" stop-color="#163D5E"/>
    </linearGradient>
  </defs>
  <rect width="100" height="100" rx="22" fill="url(#bg)"/>
  <!-- barra 1 -->
  <rect x="12" y="13" width="76" height="20" rx="7" fill="#5B9EC9" opacity="1"/>
  <rect x="22" y="20" width="30" height="3" rx="1.5" fill="#163D5E" opacity="0.6"/>
  <rect x="56" y="20" width="20" height="3" rx="1.5" fill="#163D5E" opacity="0.4"/>
  <!-- barra 2 -->
  <rect x="12" y="40" width="76" height="20" rx="7" fill="#5B9EC9" opacity="0.65"/>
  <rect x="22" y="47" width="38" height="3" rx="1.5" fill="#163D5E" opacity="0.5"/>
  <rect x="64" y="47" width="14" height="3" rx="1.5" fill="#163D5E" opacity="0.35"/>
  <!-- barra 3 -->
  <rect x="12" y="67" width="76" height="20" rx="7" fill="#5B9EC9" opacity="0.35"/>
  <rect x="22" y="74" width="26" height="3" rx="1.5" fill="#163D5E" opacity="0.4"/>
  <rect x="52" y="74" width="18" height="3" rx="1.5" fill="#163D5E" opacity="0.3"/>
  <!-- círculo de fundo para sparkle -->
  <circle cx="72" cy="73" r="21" fill="#0A2A42"/>
  <circle cx="72" cy="73" r="21" fill="none" stroke="#C89B3C" stroke-width="1" opacity="0.4"/>
  <!-- sparkle dentro do círculo -->
  <g transform="translate(72, 73)">
    <path d="M0,-15 C1.3,-5.5 5.5,-1.3 15,0 C5.5,1.3 1.3,5.5 0,15 C-1.3,5.5 -5.5,1.3 -15,0 C-5.5,-1.3 -1.3,-5.5 0,-15Z" fill="#C89B3C"/>
  </g>
</svg>
